<svg width="30" height="30" viewBox="0 0 30 30" fill="none" xmlns="http://www.w3.org/2000/svg">
<g clip-path="url(#clip0_23_27743)">
<path d="M25.7813 24.1308L19.9688 18.3183C21.3741 16.4644 21.9858 14.1283 21.6694 11.8236C21.353 9.51888 20.1343 7.43413 18.2813 6.02763C16.4335 4.61873 14.102 4.00111 11.7991 4.31051C9.49621 4.61991 7.41037 5.83101 6.00002 7.67763C4.71191 9.36455 4.07961 11.4615 4.22052 13.5793C4.36143 15.6971 5.26596 17.6919 6.76621 19.1933C8.26646 20.6947 10.2605 21.6007 12.3782 21.7433C14.4959 21.8858 16.5934 21.2551 18.2813 19.9683L24.0938 25.7808L25.7813 24.1308ZM13.0219 19.3776C11.7666 19.3795 10.539 19.0091 9.49419 18.3132C8.44942 17.6173 7.63447 16.6273 7.15237 15.4683C6.67028 14.3092 6.54271 13.0333 6.78579 11.8017C7.02886 10.5702 7.63167 9.43841 8.51799 8.54948C9.4043 7.66054 10.5343 7.05439 11.7651 6.80768C12.9959 6.56096 14.2723 6.68476 15.4327 7.16343C16.5932 7.6421 17.5856 8.45412 18.2845 9.49683C18.9835 10.5395 19.3575 11.7661 19.3594 13.0214C19.3606 13.8549 19.1977 14.6804 18.8799 15.4509C18.562 16.2214 18.0956 16.9218 17.5071 17.512C16.9186 18.1023 16.2196 18.5708 15.45 18.8909C14.6805 19.211 13.8554 19.3764 13.0219 19.3776Z" fill="black"/>
</g>
<defs>
<clipPath id="clip0_23_27743">
<rect width="30" height="30" fill="white"/>
</clipPath>
</defs>
</svg>
