<?xml version="1.0" encoding="utf-8"?><svg width="160" height="132" viewBox="0 0 160 132" xmlns="http://www.w3.org/2000/svg" xmlns:xlink="http://www.w3.org/1999/xlink"><svg width="40" height="40" fill="none" viewBox="-10 -10 40 40" id="car" x="70" y="50" xmlns="http://www.w3.org/2000/svg"><mask id="aa" style="mask-type:alpha" maskUnits="userSpaceOnUse" x="0" y="0" width="20" height="20"><path fill="#D9D9D9" d="M0 0h20v20H0z"/></mask><g mask="url(#aa)"><path d="M5 15.833v.417c0 .347-.122.642-.365.885a1.206 1.206 0 0 1-.885.365c-.347 0-.642-.122-.885-.365a1.206 1.206 0 0 1-.365-.885v-5.958c0-.098.007-.195.02-.292.015-.097.036-.188.063-.27l1.563-4.438c.11-.334.312-.605.604-.813.292-.208.618-.312.98-.312h8.54c.362 0 .688.104.98.312.292.208.493.48.604.813l1.563 4.437c.027.083.048.174.062.271.014.097.021.194.021.292v5.958c0 .347-.122.642-.365.885a1.206 1.206 0 0 1-.885.365c-.347 0-.642-.122-.885-.365A1.205 1.205 0 0 1 15 16.25v-.417H5Zm-.167-7.5h10.334l-.875-2.5H5.708l-.875 2.5Zm1.417 5c.347 0 .642-.121.885-.364s.365-.538.365-.886c0-.347-.122-.642-.365-.885a1.205 1.205 0 0 0-.885-.365c-.347 0-.642.122-.885.365a1.205 1.205 0 0 0-.365.885c0 .348.122.643.365.886s.538.364.885.364Zm7.5 0c.347 0 .642-.121.885-.364.244-.243.365-.538.365-.886 0-.347-.121-.642-.365-.885a1.205 1.205 0 0 0-.885-.365c-.347 0-.642.122-.885.365a1.205 1.205 0 0 0-.365.885c0 .348.121.643.365.886.243.243.538.364.885.364Z" fill="#584B4D"/></g></svg><svg width="70" height="26.98" fill="none" viewBox="-25.8 -25.8 180.6 69.6" id="close-icon" xmlns="http://www.w3.org/2000/svg"><g clip-path="url(#ba)" stroke="#C4C4C4" stroke-miterlimit="10"><path d="m117.607 4 10 10M117.607 14l10-10"/></g><defs><clipPath id="ba"><path fill="#fff" d="M0 0h129v18H0z"/></clipPath></defs></svg><svg width="40" height="40" fill="none" viewBox="-10 -10 40 40" id="family_star" x="120" xmlns="http://www.w3.org/2000/svg"><mask id="ca" style="mask-type:alpha" maskUnits="userSpaceOnUse" x="0" y="0" width="20" height="20"><path fill="#D9D9D9" d="M0 0h20v20H0z"/></mask><g mask="url(#ca)"><path d="M10 13.333c.667 0 1.26-.198 1.781-.594.521-.395.9-.906 1.136-1.53H7.083a3.385 3.385 0 0 0 1.136 1.53c.52.396 1.114.594 1.781.594ZM7.917 10c.347 0 .642-.122.885-.365s.365-.538.365-.885-.122-.642-.365-.885a1.205 1.205 0 0 0-.885-.365c-.348 0-.643.121-.886.365a1.205 1.205 0 0 0-.364.885c0 .347.121.642.364.885s.538.365.886.365Zm4.166 0c.348 0 .643-.122.886-.365s.364-.538.364-.885-.121-.642-.364-.885a1.205 1.205 0 0 0-.886-.365c-.347 0-.642.121-.885.365a1.205 1.205 0 0 0-.365.885c0 .347.122.642.365.885s.538.365.885.365ZM6.354 5.333l2.333-3.02c.167-.223.365-.386.594-.49a1.718 1.718 0 0 1 1.438 0c.229.104.427.267.594.49l2.333 3.02 3.541 1.188c.362.11.646.316.855.614.208.299.312.629.312.99 0 .167-.024.333-.073.5a1.551 1.551 0 0 1-.24.48l-2.291 3.25.083 3.416c.014.486-.146.896-.479 1.229-.333.333-.722.5-1.166.5-.028 0-.181-.02-.459-.063L10 16.396l-3.73 1.041a.792.792 0 0 1-.228.052c-.084.008-.16.011-.23.011-.444 0-.833-.167-1.166-.5a1.602 1.602 0 0 1-.48-1.23l.084-3.437-2.27-3.229a1.55 1.55 0 0 1-.24-.479 1.778 1.778 0 0 1-.073-.5c0-.347.1-.67.302-.969.201-.298.482-.51.843-.635l3.542-1.188Z" fill="#A72536"/></g></svg><svg width="40" height="40" fill="none" viewBox="-10 -10 40 40" id="menu" x="120" y="40" xmlns="http://www.w3.org/2000/svg"><mask id="da" style="mask-type:alpha" maskUnits="userSpaceOnUse" x="0" y="0" width="20" height="20"><path fill="#D9D9D9" d="M0 0h20v20H0z"/></mask><g mask="url(#da)"><path d="m9.98 11.208-5.75 5.709a.814.814 0 0 1-.574.24.776.776 0 0 1-.593-.24.79.79 0 0 1-.23-.584.79.79 0 0 1 .23-.583l7.958-7.958c-.25-.584-.285-1.243-.104-1.98.18-.736.576-1.395 1.187-1.979.736-.736 1.556-1.166 2.459-1.291.902-.125 1.638.097 2.208.666.57.57.791 1.306.666 2.209-.125.902-.555 1.722-1.291 2.458-.584.611-1.243 1.007-1.98 1.188-.735.18-1.395.145-1.979-.105L11.146 10l5.75 5.75a.815.815 0 0 1 .24.573.776.776 0 0 1-.24.594.79.79 0 0 1-.584.229.79.79 0 0 1-.583-.23l-5.75-5.708Zm-3.876-.833-2.5-2.5c-.583-.583-.951-1.32-1.104-2.208-.153-.89.02-1.68.52-2.375a.844.844 0 0 1 .615-.354.744.744 0 0 1 .657.25l4.479 4.52-2.667 2.667Z" fill="#584B4D"/></g></svg><svg width="40" height="40" fill="none" viewBox="-10 -10 40 40" id="receipt" y="91.98" xmlns="http://www.w3.org/2000/svg"><mask id="ea" style="mask-type:alpha" maskUnits="userSpaceOnUse" x="0" y="0" width="20" height="20"><path fill="#D9D9D9" d="M0 0h20v20H0z"/></mask><g mask="url(#ea)"><path d="M5 17.917a2.011 2.011 0 0 1-1.478-.605 2.011 2.011 0 0 1-.605-1.479v-1.33a.73.73 0 0 1 .215-.537.73.73 0 0 1 .538-.216h1.747V2.655c0-.086.035-.144.105-.173.07-.03.137-.018.2.036l.613.508a.356.356 0 0 0 .236.093.356.356 0 0 0 .235-.093l.699-.57a.356.356 0 0 1 .235-.094c.085 0 .163.031.236.093l.699.57a.356.356 0 0 0 .235.094.356.356 0 0 0 .236-.093l.699-.57a.356.356 0 0 1 .235-.094c.085 0 .163.031.236.093l.698.57a.356.356 0 0 0 .236.094.356.356 0 0 0 .236-.093l.698-.57a.356.356 0 0 1 .236-.094c.084 0 .163.031.235.093l.7.57a.356.356 0 0 0 .235.094.356.356 0 0 0 .235-.093l.699-.57a.356.356 0 0 1 .236-.094c.084 0 .162.031.235.093l.699.57a.356.356 0 0 0 .236.094.356.356 0 0 0 .235-.093l.612-.508c.064-.054.131-.066.201-.036.07.029.105.087.105.173v13.178c0 .583-.201 1.075-.605 1.479a2.011 2.011 0 0 1-1.478.605H5Zm10-1.25c.236 0 .434-.08.594-.24.16-.16.24-.358.24-.594V4.167H6.666v9.583h6.747a.73.73 0 0 1 .537.216.73.73 0 0 1 .216.537v1.33c0 .236.08.434.24.594.159.16.357.24.593.24ZM8.285 6.042h3.478c.177 0 .326.06.445.18.12.119.18.267.18.445 0 .177-.06.325-.18.445a.605.605 0 0 1-.445.18H8.285a.605.605 0 0 1-.445-.18.605.605 0 0 1-.18-.445c0-.178.06-.326.18-.446s.268-.18.445-.18Zm0 2.5h3.478c.177 0 .326.06.445.18.12.119.18.267.18.445 0 .177-.06.325-.18.445a.605.605 0 0 1-.445.18H8.285a.605.605 0 0 1-.445-.18.605.605 0 0 1-.18-.445c0-.178.06-.326.18-.446s.268-.18.445-.18Zm5.834-1.138a.71.71 0 0 1-.522-.216.71.71 0 0 1-.216-.521.71.71 0 0 1 .216-.522.71.71 0 0 1 .522-.216.71.71 0 0 1 .521.216.71.71 0 0 1 .216.522.71.71 0 0 1-.216.521.71.71 0 0 1-.521.216Zm0 2.5a.71.71 0 0 1-.522-.216.71.71 0 0 1-.216-.521.71.71 0 0 1 .216-.522.71.71 0 0 1 .522-.216.71.71 0 0 1 .521.216.71.71 0 0 1 .216.522.71.71 0 0 1-.216.521.71.71 0 0 1-.521.216ZM5 16.667h7.917V15h-8.75v.833c0 .236.08.434.24.594.159.16.357.24.593.24Z" fill="#584B4D"/></g></svg><svg width="30" height="34" fill="none" viewBox="-10 -10 30 34" id="ruble" x="40" y="91.98" xmlns="http://www.w3.org/2000/svg"><path d="M1.575 12.377v-1.226H1a.732.732 0 0 1-.539-.22.733.733 0 0 1-.22-.538c0-.213.074-.392.22-.539A.733.733 0 0 1 1 9.634h.575V8.382H1a.733.733 0 0 1-.539-.22.733.733 0 0 1-.22-.538c0-.213.074-.393.22-.539A.733.733 0 0 1 1 6.864h.575V1.623c0-.213.073-.393.22-.539a.732.732 0 0 1 .538-.22H6c1.046 0 1.934.365 2.664 1.095.73.73 1.094 1.618 1.094 2.664s-.365 1.934-1.094 2.664C7.934 8.017 7.046 8.38 6 8.38H3.092v1.254H5c.213 0 .392.073.539.22.146.146.22.325.22.538a.733.733 0 0 1-.22.539.732.732 0 0 1-.539.22H3.092v1.225a.733.733 0 0 1-.22.539.733.733 0 0 1-.539.22.733.733 0 0 1-.538-.22.733.733 0 0 1-.22-.539Zm1.517-5.513H6c.62 0 1.15-.218 1.586-.655a2.16 2.16 0 0 0 .656-1.586c0-.62-.219-1.15-.656-1.586A2.16 2.16 0 0 0 6 2.38H3.092v4.483Z" fill="#584B4D"/></svg><svg width="50" height="50" fill="none" viewBox="-10 -10 50 50" id="search" x="70" xmlns="http://www.w3.org/2000/svg"><g clip-path="url(#ga)"><path d="m25.781 24.13-5.812-5.812a8.776 8.776 0 0 0-1.688-12.29 8.766 8.766 0 1 0 0 13.94l5.813 5.813 1.687-1.65Zm-12.76-4.752a6.346 6.346 0 1 1-.018-12.693 6.346 6.346 0 0 1 .019 12.693Z" fill="#fff"/></g><defs><clipPath id="ga"><path fill="#fff" d="M0 0h30v30H0z"/></clipPath></defs></svg><svg width="65" height="65" fill="none" viewBox="-10 -10 65 65" id="slider-arrow" y="26.98" xmlns="http://www.w3.org/2000/svg"><g clip-path="url(#ha)"><mask id="hb" style="mask-type:luminance" maskUnits="userSpaceOnUse" x="15" y="11" width="15" height="23"><path d="M15.875 11.25h13.5v22.5h-13.5v-22.5Z" fill="#fff"/></mask><g mask="url(#hb)"><path d="m20.135 22.5 8.164 8.078a1.498 1.498 0 0 1-2.108 2.13l-8.186-8.1-2.13-2.108 2.13-2.108 8.186-8.1a1.498 1.498 0 1 1 2.108 2.13L20.135 22.5Z" fill="#A72536"/></g></g><defs><clipPath id="ha"><path fill="#fff" transform="matrix(-1 0 0 1 29.5 11)" d="M0 0h14v23H0z"/></clipPath></defs></svg></svg>